# AST/ASF file generated using VICON BodyLanguage
# -----------------------------------------------
:version 1.10
:name VICON
:units
  mass 1.0
  length 0.45
  angle deg
:documentation
   .ast/.asf automatically generated from VICON data using
   VICON BodyBuilder and BodyLanguage model FoxedUp or BRILLIANT.MOD
:root
   order TX TY TZ RX RY RZ
   axis XYZ
   position 0 0 0  
   orientation 0 0 0 
:bonedata
  begin
     id 1 
     name lhipjoint
     direction 0.535335 -0.74333 0.401095 
     length 2.04549 
     axis 0 0 0  XYZ
  end
  begin
     id 2 
     name lfemur
     direction 0.34202 -0.939693 0  
     length 6.95643  
     axis 0 0 20  XYZ
    dof rx ry rz
    limits (-160.0 20.0)
           (-70.0 70.0)
           (-60.0 70.0)
  end
  begin
     id 3 
     name ltibia
     direction 0.34192 -0.939729 0   
     length 5.55969   
     axis 0 0 20   XYZ
    dof rx
    limits (-10.0 170.0)
  end
  begin
     id 4 
     name lfoot
     direction 0.216943 -0.596046 0.773088   
     length 2.27918   
     axis -90 7.62852e-016 20   XYZ
    dof rx rz
    limits (-45.0 90.0)
           (-70.0 20.0)
  end
  begin
     id 5 
     name ltoes
     direction 1.53519e-011 -4.21748e-011 1   
     length 1.05562   
     axis -90 7.62852e-016 20   XYZ
    dof rx
    limits (-90.0 20.0)
  end
  begin
     id 6 
     name rhipjoint
     direction -0.576368 -0.719173 0.38806   
     length 2.1142  
     axis 0 0 0  XYZ 
  end
  begin
     id 7 
     name rfemur
     direction -0.34202 -0.939693 0   
     length 7.07928   
     axis 0 0 -20   XYZ
    dof rx ry rz
    limits (-160.0 20.0)
           (-70.0 70.0)
           (-70.0 60.0)
  end
  begin
     id 8 
     name rtibia
     direction -0.34202 -0.939693 0   
     length 5.79974   
     axis 0 0 -20   XYZ
    dof rx
    limits (-10.0 170.0)
 end
 begin
     id 9 
     name rfoot
     direction -0.189288 -0.520065 0.832888   
     length 2.42173  
     axis -90 -7.62852e-016 -20   XYZ
    dof rx rz
    limits (-45.0 90.0)
           (-20.0 70.0)
  end
  begin
     id 10 
     name rtoes
     direction -1.53574e-011 -4.21658e-011 1   
     length 1.14469   
     axis -90 -7.62852e-016 -20   XYZ
    dof rx
    limits (-90.0 20.0)
  end
  begin
     id 11 
     name lowerback
     direction -0.00135702 0.993803 0.111144   
     length 1.91308   
     axis 0 0 0   XYZ
    dof rx ry rz
    limits (-20.0 45.0)
           (-30.0 30.0)
           (-30.0 30.0)
  end
  begin
     id 12 
     name upperback
     direction -0.0056745 0.999813 0.0184631   
     length 1.9212   
     axis 0 0 0   XYZ
    dof rx ry rz
    limits (-20.0 45.0)
           (-30.0 30.0)
           (-30.0 30.0)
  end
  begin
     id 13 
     name thorax
     direction -0.00733434 0.999426 -0.0330788   
     length 1.94196   
     axis 0 0 0   XYZ
    dof rx ry rz
    limits (-20.0 45.0)
           (-30.0 30.0)
           (-30.0 30.0)
  end
  begin
     id 14 
     name lowerneck
     direction 0.0563074 0.996944 -0.0541571   
     length 2.34257   
     axis 0 0 0   XYZ
    dof rx ry rz
    limits (-20.0 45.0)
           (-30.0 30.0)
           (-30.0 30.0)
  end
  begin
     id 15 
     name upperneck
     direction -0.0544519 0.976166 -0.210085   
     length 2.32506   
     axis 0 0 0   XYZ
    dof rx ry rz
    limits (-20.0 45.0)
           (-30.0 30.0)
           (-30.0 30.0)
  end
  begin
     id 16
     name head
     direction -0.0226035 0.997615 -0.0652205  
     length 2.3648  
     axis 0 0 0   XYZ
    dof rx ry rz
    limits (-20.0 45.0)
           (-30.0 30.0)
           (-30.0 30.0)
  end
  begin
     id 17 
     name lclavicle
     direction 0.92109 0.381297 -0.0787716  
     length 4.0487  
     axis 0 0 0   XYZ
    dof ry rz
    limits (-20.0 10.0)
           (0.0 20.0)
  end
  begin
     id 18 
     name lhumerus
     direction 1 -4.48986e-011 3.56724e-027   
     length 4.94991   
     axis 180 -30 -90   XYZ
    dof rx ry rz
    limits (-60.0 90.0)
           (-90.0 90.0)
           (-90.0 90.0)
  end
  begin
     id 19
     name lradius
     direction 1 -4.48981e-011 8.62147e-027   
     length 2.7606   
     axis 180 -30 -90   XYZ
    dof rx
    limits (-10.0 170.0)
  end
  begin
     id 20
     name lwrist
     direction 1 -4.48989e-011 1.59799e-026   
     length 1.3803   
     axis -1.17785e-014 90 90   XYZ
    dof ry
    limits (-180.0 0.0)
 end
  begin
     id 21 
     name lhand
     direction 1 -4.48896e-011 3.19599e-026   
     length 0.843936   
     axis -2.03931e-014 90 90   XYZ
    dof rx rz
    limits (-90.0 90.0)
           (-45.0 45.0)
  end
  begin
     id 22 
     name lfingers
     direction 1 -4.48887e-011 6.39197e-026   
     length 0.680403   
     axis -4.07862e-014 90 90   XYZ
    dof rx
    limits (0.0 90.0)
  end
  begin
     id 23
     name lthumb
     direction 0.707107 -6.348e-011 0.707107   
     length 0.976926   
     axis -90 45 2.85299e-015   XYZ
    dof rx rz
    limits (-45.0 45.0)
           (-45.0 45.0)
  end
  begin
     id 24 
     name rclavicle
     direction -0.951104 0.307692 -0.026953   
     length 4.21801  
     axis 0 0 0   XYZ 
    dof ry rz
    limits (-10.0 20.0)
           (-20.0 0.0)
  end
  begin
     id 25 
     name rhumerus
     direction -1 -4.4896e-011 -1.8171e-018  
     length 4.32982   
     axis 180 30 90   XYZ
    dof rx ry rz
    limits (-90.0 60.0)
           (-90.0 90.0)
           (-90.0 90.0)
  end
  begin
     id 26 
     name rradius
     direction -1 -4.48959e-011 8.25165e-027   
     length 3.20057   
     axis 180 30 90   XYZ
    dof rx
    limits (-10.0 170.0)
  end
  begin
     id 27 
     name rwrist
     direction -1 -4.48997e-011 1.59799e-026   
     length 1.60029   
     axis -1.17785e-014 -90 -90   XYZ
    dof ry
    limits (-180.0 0.0)
  end
  begin
     id 28
     name rhand
     direction -1 -4.49023e-011 3.19599e-026   
     length 0.960433   
     axis -2.03931e-014 -90 -90   XYZ
    dof rx rz
    limits (-90.0 90.0)
           (-45.0 45.0)
  end
  begin
     id 29
     name rfingers
     direction -1 -4.48802e-011 6.39197e-026   
     length 0.774326   
     axis -4.07862e-014 -90 -90   XYZ
    dof rx
    limits (0.0 90.0)
  end
  begin
     id 30
     name rthumb
     direction -0.707107 -6.34876e-011 0.707107   
     length 1.11178   
     axis -90 -45 -2.85299e-015   XYZ
    dof rx rz
    limits (-45.0 45.0)
           (-45.0 45.0)
  end
:hierarchy
  begin
    root lhipjoint rhipjoint lowerback
    lhipjoint lfemur
    lfemur ltibia
    ltibia lfoot
    lfoot ltoes
    rhipjoint rfemur
    rfemur rtibia
    rtibia rfoot
    rfoot rtoes
    lowerback upperback
    upperback thorax
    thorax lowerneck lclavicle rclavicle
    lowerneck upperneck
    upperneck head
    lclavicle lhumerus
    lhumerus lradius
    lradius lwrist
    lwrist lhand lthumb
    lhand lfingers
    rclavicle rhumerus
    rhumerus rradius
    rradius rwrist
    rwrist rhand rthumb
    rhand rfingers
end

#!OML:ASF C:\KaitlinTest1\Natural Motions\Nikki\Session 2\Nikki.ASF
:FULLY-SPECIFIED
:DEGREES
211
root -13.719 16.679 4.68504 -122.892 88.8104 -133.496
lowerback -7.09342 -0.909985 1.70865
upperback -2.93964 -1.2275 -1.36054
thorax 0.875676 -0.600196 -2.45411
lowerneck -10.3282 -12.6514 -8.68638
upperneck 4.57155 41.1102 5.34649
head 166.84 59.7961 -38.7439
rclavicle -1.2275e-014 -5.1684e-015
rhumerus -44.4972 -27.5406 -73.4223
rradius 18.6736
rwrist 21.8164
rhand -36.0609 2.90951
rfingers 7.12502
rthumb -9.16852 -26.8712
lclavicle -1.2275e-014 -5.1684e-015
lhumerus -43.9067 10.7481 79.555
lradius 28.1547
lwrist -26.3045
lhand -34.8821 1.67808
lfingers 7.12502
lthumb -8.031 31.5055
rfemur -10.7709 -12.9575 19.9452
rtibia 16.6916
rfoot -13.415 9.75314
rtoes -1.82882e-014
lfemur -13.6111 13.6286 -20.3085
ltibia 14.664
lfoot -3.76169 -14.0871
ltoes -1.59028e-015
212
root -13.7247 16.6793 4.68901 -124.562 88.9918 -135.296
lowerback -6.91434 -0.884215 1.5484
upperback -2.87478 -1.18302 -1.40219
thorax 0.848493 -0.578006 -2.40075
lowerneck -10.7836 -12.7194 -8.63421
upperneck 4.43569 41.163 5.29822
head 166.954 59.5236 -38.7206
rclavicle -2.86995e-015 -7.15625e-015
rhumerus -44.754 -27.3584 -73.1655
rradius 18.8296
rwrist 21.5204
rhand -36.0734 3.0221
rfingers 7.12502
rthumb -9.1806 -26.7581
lclavicle -2.86995e-015 -7.15625e-015
lhumerus -44.1513 10.763 79.181
lradius 28.393
lwrist -25.7969
lhand -34.9527 2.19924
lfingers 7.12502
lthumb -8.09917 32.024
rfemur -11.1623 -12.7815 19.8071
rtibia 17.1565
rfoot -13.5864 9.63112
rtoes -1.35174e-014
lfemur -13.749 13.4181 -20.4862
ltibia 14.5914
lfoot -3.68534 -13.7861
ltoes -2.70347e-014
213
root -13.7346 16.6782 4.69587 -124.673 89.004 -135.512
lowerback -6.58134 -0.920679 1.50362
upperback -2.84553 -1.22892 -1.39742
thorax 0.692802 -0.603508 -2.36754
lowerneck -11.245 -12.8158 -8.48549
upperneck 4.27269 41.0199 5.19476
head 166.584 59.5545 -38.9977
rclavicle 1.6027e-014 1.59028e-014
rhumerus -44.9002 -27.2073 -72.9312
rradius 18.7674
rwrist 21.4306
rhand -36.1765 2.95933
rfingers 7.12502
rthumb -9.28012 -26.8164
lclavicle 1.6027e-014 1.59028e-014
lhumerus -44.519 11.2636 78.438
lradius 28.6644
lwrist -25.9457
lhand -34.9265 2.35509
lfingers 7.12502
lthumb -8.07381 32.1809
rfemur -11.5598 -12.5483 19.8576
rtibia 17.6568
rfoot -13.7471 9.35715
rtoes 5.56597e-015
lfemur -13.8914 13.1857 -20.4836
ltibia 14.5311
lfoot -3.53535 -13.5728
ltoes -2.06736e-014
214
root -13.7347 16.6808 4.6993 -125.172 89.113 -136.134
lowerback -6.50566 -0.90472 1.44732
upperback -2.72503 -1.20632 -1.44162
thorax 0.776406 -0.591591 -2.37978
lowerneck -11.7447 -12.8427 -8.41318
upperneck 4.10656 41.0478 5.16701
head 166.828 59.4251 -38.9274
rclavicle -1.15544e-014 0
rhumerus -45.1449 -27.396 -72.4681
rradius 18.7827
rwrist 21.7665
rhand -36.1476 2.88297
rfingers 7.12502
rthumb -9.2522 -26.894
lclavicle -1.15544e-014 0
lhumerus -44.7953 11.7234 77.6965
lradius 28.8877
lwrist -26.1809
lhand -34.9614 2.3043
lfingers 7.12502
lthumb -8.10753 32.1288
rfemur -11.9232 -12.4234 19.7767
rtibia 18.1175
rfoot -13.9363 9.28056
rtoes 3.26007e-014
lfemur -13.9964 12.8931 -20.5744
ltibia 14.4803
lfoot -3.46859 -13.2062
ltoes 6.99722e-014
215
root -13.7454 16.6779 4.70672 -128.535 89.1418 -139.645
lowerback -6.29848 -0.94427 1.3809
upperback -2.63442 -1.25676 -1.44944
thorax 0.753503 -0.617491 -2.35073
lowerneck -12.3385 -12.9174 -8.30429
upperneck 3.95533 41.1516 5.10277
head 166.783 59.133 -39.035
rclavicle 8.94531e-015 1.19271e-015
rhumerus -45.2061 -27.2033 -72.3422
rradius 18.7689
rwrist 21.5251
rhand -36.2949 2.88747
rfingers 7.12502
rthumb -9.39436 -26.8832
lclavicle 8.94531e-015 1.19271e-015
lhumerus -45.0803 12.3266 76.8986
lradius 29.1114
lwrist -26.4807
lhand -34.9592 2.26226
lfingers 7.12502
lthumb -8.10543 32.0868
rfemur -12.3559 -12.1005 19.7906
rtibia 18.6346
rfoot -14.1247 8.84322
rtoes 2.70347e-014
lfemur -14.1989 12.5609 -20.6121
ltibia 14.4501
lfoot -3.37379 -12.8687
ltoes -4.77083e-015
216
root -13.7367 16.678 4.70724 -127.468 89.3182 -138.758
lowerback -6.32072 -0.895254 1.35128
upperback -2.56159 -1.19041 -1.50082
thorax 0.843701 -0.583401 -2.38393
lowerneck -12.7559 -12.9485 -8.29407
upperneck 3.77971 41.0678 5.03564
head 166.949 59.0871 -38.9711
rclavicle -1.12065e-014 3.97569e-016
rhumerus -45.4443 -27.0707 -72.117
rradius 18.8393
rwrist 21.4403
rhand -36.4024 2.79061
rfingers 7.12502
rthumb -9.49804 -26.9753
lclavicle -1.12065e-014 3.97569e-016
lhumerus -45.4823 12.8047 76.1593
lradius 29.3345
lwrist -26.813
lhand -35.0429 2.31985
lfingers 7.12502
lthumb -8.18621 32.1413
rfemur -12.7576 -11.8586 19.6445
rtibia 19.1605
rfoot -14.3818 8.68669
rtoes -1.06549e-013
lfemur -14.3227 12.2576 -20.7508
ltibia 14.4392
lfoot -3.32471 -12.4205
ltoes -6.04305e-014
217
root -13.747 16.6749 4.71182 -139.142 89.4198 -150.599
lowerback -6.0445 -0.905217 1.22267
upperback -2.54753 -1.19546 -1.54964
thorax 0.706289 -0.587342 -2.35689
lowerneck -13.2887 -13.0543 -8.17552
upperneck 3.70771 41.3348 5.01598
head 166.885 58.6471 -39.1197
rclavicle 6.18717e-015 1.07344e-014
rhumerus -45.8874 -27.2694 -71.5177
rradius 18.8389
rwrist 21.7995
rhand -36.4637 3.19737
rfingers 7.12502
rthumb -9.55718 -26.5659
lclavicle 6.18717e-015 1.07344e-014
lhumerus -45.8883 13.2163 75.4198
lradius 29.5623
lwrist -27.0754
lhand -34.8832 2.14219
lfingers 7.12502
lthumb -8.03208 31.9696
rfemur -13.2318 -11.3962 19.4962
rtibia 19.7126
rfoot -14.5219 8.17057
rtoes -6.67916e-014
lfemur -14.5889 11.8452 -20.9241
ltibia 14.5019
lfoot -3.28238 -12.0306
ltoes -2.8625e-014
218
root -13.7593 16.6718 4.7171 -144.378 89.4713 -156.034
lowerback -5.85767 -0.890328 1.17156
upperback -2.4799 -1.17364 -1.5862
thorax 0.673458 -0.577133 -2.36155
lowerneck -13.8092 -13.1685 -8.07387
upperneck 3.53292 41.2793 4.94173
head 166.874 58.4089 -39.1636
rclavicle 4.02539e-015 -1.98785e-015
rhumerus -46.0059 -26.9714 -71.5094
rradius 18.959
rwrist 21.3529
rhand -36.4916 3.10166
rfingers 7.12502
rthumb -9.58411 -26.6604
lclavicle 4.02539e-015 -1.98785e-015
lhumerus -46.0742 13.6337 74.7054
lradius 29.6502
lwrist -27.344
lhand -34.8121 2.17361
lfingers 7.12502
lthumb -7.96343 32.0036
rfemur -13.7569 -10.7256 19.4456
rtibia 20.2627
rfoot -14.6013 7.46741
rtoes 2.46493e-014
lfemur -14.9266 11.3493 -20.9791
ltibia 14.6393
lfoot -3.14509 -11.5341
ltoes -5.08889e-014
